<svg width="176" height="176" viewBox="0 0 176 176" fill="none" xmlns="http://www.w3.org/2000/svg">
<circle cx="87.924" cy="87.924" r="80" transform="rotate(84 87.924 87.924)" stroke="#1900FF" stroke-width="4"/>
<path d="M84.7601 72.3854C85.8028 71.0978 87.6919 70.8992 88.9795 71.9419L103.745 83.899C105.033 84.9417 105.231 86.8308 104.189 88.1184L92.2317 102.884C91.189 104.172 89.2999 104.37 88.0123 103.328L73.2465 91.3706C71.9589 90.3279 71.7604 88.4388 72.8031 87.1512L84.7601 72.3854Z" fill="#1900FF"/>
<path d="M104.298 39.7189C104.998 38.2173 106.783 37.5676 108.284 38.2679L147.256 56.4404C151.76 58.5411 153.709 63.8959 151.609 68.4008L146.115 80.1828C145.415 81.6844 143.63 82.3341 142.128 81.6338L97.7189 60.9255C96.2173 60.2253 95.5676 58.4404 96.2679 56.9388L104.298 39.7189Z" fill="#1900FF"/>
</svg>
